<?xml version="1.0" standalone="no"?>
<!DOCTYPE svg PUBLIC "-//W3C//DTD SVG 20010904//EN"
 "http://www.w3.org/TR/2001/REC-SVG-20010904/DTD/svg10.dtd">
<svg version="1.0" xmlns="http://www.w3.org/2000/svg"
 width="600.000000pt" height="774.000000pt" viewBox="0 0 600.000000 774.000000"
 preserveAspectRatio="xMidYMid meet">
<g transform="translate(0.000000,774.000000) scale(0.100000,-0.100000)"
fill="#000000" stroke="none">
<path d="M328 7733 c7 -3 16 -2 19 1 4 3 -2 6 -13 5 -11 0 -14 -3 -6 -6z"/>
<path d="M5975 7600 c10 -11 20 -20 22 -20 2 0 -1 9 -7 20 -6 11 -16 20 -22
20 -6 0 -3 -9 7 -20z"/>
<path d="M3447 7124 c-8 -8 14 -54 26 -54 5 0 7 9 4 20 -4 18 -2 20 16 14 12
-4 24 -11 25 -15 2 -5 7 -7 12 -4 5 3 11 -4 15 -15 8 -26 25 -17 18 9 -7 28
-98 63 -116 45z"/>
<path d="M3643 7060 c-13 -5 -23 -14 -23 -20 0 -11 23 -14 34 -3 11 11 65 12
72 1 7 -11 -16 -29 -27 -22 -4 2 -10 0 -14 -6 -11 -18 47 -11 61 8 20 26 17
42 -8 41 -13 0 -34 2 -48 5 -14 3 -35 1 -47 -4z"/>
<path d="M3410 7009 c6 -11 18 -23 26 -26 7 -3 11 -9 8 -14 -3 -5 13 -9 35 -9
22 0 43 5 47 11 5 8 -3 10 -24 7 -21 -3 -33 0 -37 9 -2 8 -9 11 -15 8 -17 -11
-11 7 8 21 15 12 13 13 -21 14 -35 0 -37 -1 -27 -21z"/>
<path d="M3720 6970 c-12 -8 -9 -10 13 -10 15 0 27 5 27 10 0 13 -20 13 -40 0z"/>
<path d="M3576 6941 c-4 -5 -2 -12 3 -15 5 -4 12 -2 15 3 4 5 2 12 -3 15 -5 4
-12 2 -15 -3z"/>
<path d="M3591 6911 c-12 -8 -10 -14 10 -38 35 -43 63 -54 77 -32 9 14 7 23
-8 41 -17 20 -19 21 -20 5 0 -10 5 -15 10 -12 6 3 10 1 10 -4 0 -28 -51 2 -61
36 -3 8 -9 9 -18 4z"/>
<path d="M3707 6894 c9 -15 19 -21 21 -15 4 13 -16 41 -29 41 -5 0 -2 -12 8
-26z"/>
<path d="M4977 6683 c-4 -3 -7 -21 -7 -38 0 -78 -55 -373 -94 -505 -108 -367
-397 -724 -721 -893 -131 -68 -249 -97 -401 -97 -196 0 -366 50 -512 149 l-61
41 22 47 c17 38 21 67 22 145 0 91 -2 98 -30 139 -60 85 -131 111 -174 65 -21
-22 -23 -32 -19 -98 5 -89 44 -177 113 -255 l46 -52 -19 -28 c-11 -15 -38 -59
-61 -98 -24 -38 -56 -88 -72 -110 -16 -22 -40 -56 -53 -75 -13 -19 -32 -44
-43 -55 -18 -20 -144 -174 -315 -387 -49 -60 -88 -114 -88 -119 0 -17 35 13
75 66 22 29 108 136 190 237 244 298 318 400 376 516 12 23 23 42 25 42 2 0
25 -16 51 -36 211 -161 564 -207 828 -106 241 91 480 294 663 563 42 63 124
228 155 314 42 118 86 313 106 470 17 136 17 178 -2 158z m-1850 -970 c45 -34
83 -113 83 -172 0 -44 -26 -160 -39 -174 -23 -23 -123 145 -142 240 -11 55
-11 67 4 98 21 43 45 45 94 8z"/>
<path d="M3145 6390 c-7 -12 2 -30 16 -30 5 0 9 9 9 20 0 21 -15 27 -25 10z"/>
<path d="M2623 5584 c-7 -20 17 -37 34 -23 15 13 6 39 -13 39 -8 0 -17 -7 -21
-16z"/>
<path d="M4186 5523 c-11 -11 -6 -23 9 -23 8 0 15 4 15 9 0 13 -16 22 -24 14z"/>
<path d="M4114 5409 c-8 -14 11 -33 25 -25 16 10 13 36 -3 36 -8 0 -18 -5 -22
-11z"/>
<path d="M4252 5353 c-15 -6 -6 -23 14 -23 8 0 14 7 14 15 0 15 -6 17 -28 8z"/>
<path d="M2813 5303 c9 -2 23 -2 30 0 6 3 -1 5 -18 5 -16 0 -22 -2 -12 -5z"/>
<path d="M5057 5060 c-3 -10 1 -24 7 -29 18 -15 51 11 43 33 -9 22 -44 20 -50
-4z"/>
<path d="M2040 4794 c0 -17 22 -14 28 4 2 7 -3 12 -12 12 -9 0 -16 -7 -16 -16z"/>
<path d="M1970 4696 c0 -8 4 -17 9 -20 11 -7 33 18 24 27 -12 12 -33 7 -33 -7z"/>
<path d="M2110 4635 c0 -8 9 -15 20 -15 13 0 18 5 14 15 -4 8 -12 15 -20 15
-8 0 -14 -7 -14 -15z"/>
<path d="M2879 4552 c-33 -22 -97 -91 -105 -114 -3 -10 -12 -18 -20 -18 -8 0
-13 -4 -10 -9 3 -5 15 -7 26 -4 11 3 20 0 20 -6 0 -6 -10 -13 -23 -16 -26 -7
-52 -41 -38 -50 5 -3 12 3 16 14 7 24 36 36 48 19 5 -8 7 1 3 25 -4 34 0 43
45 97 46 56 69 73 69 51 0 -5 -7 -11 -15 -15 -8 -3 -20 -17 -27 -30 -15 -34 4
-56 46 -56 36 0 56 15 56 42 0 10 3 18 8 18 9 -1 62 -77 62 -89 0 -5 6 -16 13
-23 6 -7 54 -99 106 -203 51 -104 116 -224 144 -265 27 -41 50 -81 50 -88 0
-7 16 -30 36 -51 43 -46 101 -175 101 -224 0 -81 -46 -140 -129 -164 -96 -28
-182 -1 -233 73 -25 35 -74 191 -64 202 15 15 49 -18 80 -78 20 -38 48 -83 62
-99 45 -54 139 -62 189 -15 21 19 25 32 25 79 0 58 -28 157 -61 213 -10 18
-19 41 -19 52 0 10 -7 20 -15 24 -23 8 -18 -16 18 -96 18 -40 41 -101 51 -135
18 -60 18 -62 -1 -95 -38 -65 -129 -67 -177 -3 -13 17 -34 53 -47 81 -26 58
-50 83 -87 93 -24 7 -27 14 -39 90 -11 72 -11 86 2 104 46 66 -22 276 -84 260
-14 -4 -21 -1 -21 9 0 9 -9 27 -21 42 -19 24 -19 27 -5 48 21 29 20 72 0 89
-14 11 -19 10 -36 -11 -14 -18 -18 -32 -13 -60 l6 -36 -83 -51 c-104 -64 -198
-160 -223 -228 -9 -27 -24 -64 -31 -82 -10 -23 -11 -38 -4 -58 15 -39 35 -26
35 23 0 38 4 43 58 82 31 23 57 48 57 56 0 7 4 14 8 14 4 0 14 16 21 35 12 35
28 44 47 25 7 -7 19 -4 36 10 15 11 31 20 37 20 6 0 11 6 11 13 0 10 14 14 49
13 27 -1 52 -3 54 -6 3 -3 17 -48 30 -100 14 -52 28 -103 32 -112 10 -25 -69
-76 -90 -58 -15 12 -98 10 -169 -5 -24 -5 -34 0 -62 30 -18 20 -39 35 -46 32
-18 -6 -13 -40 7 -52 52 -30 58 -41 58 -96 0 -66 -21 -115 -48 -112 -26 2 -55
-15 -55 -32 0 -23 18 -27 54 -10 33 16 36 16 95 -14 33 -17 75 -31 94 -31 41
0 116 46 147 91 13 19 29 37 34 41 14 9 26 0 20 -16 -9 -24 46 -175 78 -211
98 -113 307 -93 373 34 28 56 29 102 2 169 -14 34 -35 75 -46 91 -12 16 -21
32 -21 35 0 10 79 -32 153 -81 61 -41 82 -62 141 -133 76 -94 121 -341 96
-536 -20 -161 -80 -315 -168 -431 -23 -31 -28 -33 -87 -33 -48 0 -68 -5 -88
-20 -23 -18 -25 -24 -15 -45 9 -21 18 -25 55 -25 23 0 43 5 43 10 0 6 6 10 14
10 7 0 22 11 32 25 23 31 29 31 211 1 303 -51 513 -100 594 -141 49 -25 89
-67 89 -93 0 -13 -3 -12 -20 3 -43 39 -129 -4 -130 -66 0 -27 27 -59 50 -59
10 0 10 -3 1 -14 -15 -18 -131 -44 -248 -57 -48 -5 -207 -12 -352 -16 l-264
-6 7 27 c17 67 -23 135 -58 100 -21 -20 -20 -63 0 -93 21 -30 7 -40 -56 -41
-25 -1 -79 -7 -120 -15 -244 -47 -311 -50 -412 -18 -50 15 -61 35 -30 52 10 5
55 15 101 21 126 17 133 21 184 112 15 26 31 50 37 53 5 3 39 -11 77 -31 61
-32 73 -35 128 -31 66 5 165 27 235 52 47 17 133 14 157 -6 7 -6 70 -11 140
-12 110 -2 134 1 168 18 95 47 28 92 -120 81 -49 -4 -110 -12 -135 -17 -159
-33 -150 -33 -235 1 -169 67 -326 180 -397 285 -49 73 -53 90 -29 114 12 12
26 33 31 46 5 14 14 25 18 25 11 0 56 -67 66 -97 4 -12 20 -36 36 -52 52 -57
118 -33 165 60 55 107 97 383 78 500 -13 73 -50 179 -63 179 -5 0 -29 -13 -52
-30 -49 -34 -117 -50 -183 -42 -36 4 -50 11 -70 38 -14 19 -30 34 -36 34 -17
0 -9 -27 16 -53 47 -46 75 -135 75 -237 0 -143 -48 -314 -75 -270 -12 20 -166
-19 -214 -54 -36 -27 -82 -79 -124 -142 -43 -64 -78 -84 -206 -114 -64 -15
-151 -37 -194 -49 -44 -13 -80 -21 -82 -19 -2 2 3 39 11 83 8 44 19 136 25
205 6 69 14 142 19 162 9 43 -9 78 -40 78 -11 0 -41 9 -68 19 -49 19 -49 19
-81 0 -50 -30 -128 -203 -238 -529 -31 -90 -37 -121 -40 -216 l-3 -110 31 -32
c41 -42 119 -70 226 -79 l88 -8 -50 -31 c-116 -72 -311 -272 -433 -443 -78
-111 -151 -219 -174 -261 -14 -25 -40 -69 -57 -99 -80 -134 -148 -284 -227
-495 -48 -131 -50 -136 -31 -136 6 1 29 52 50 118 41 125 56 158 148 347 189
387 461 744 704 926 99 74 103 75 210 82 105 7 220 26 313 53 95 28 113 48 70
78 -16 11 -46 16 -103 16 -95 0 -179 -25 -305 -91 l-81 -42 -87 7 c-169 12
-265 57 -269 127 -2 28 -1 30 6 13 5 -12 23 -31 40 -43 29 -21 32 -21 61 -6
38 20 45 36 29 66 -21 40 -51 59 -91 57 -20 -1 -40 1 -44 5 -13 13 18 130 82
310 76 212 146 365 177 389 24 19 58 23 73 8 5 -5 27 -13 49 -18 39 -8 40 -9
39 -48 -2 -56 -33 -336 -46 -417 l-11 -67 -41 -11 c-24 -6 -56 -27 -79 -50
-37 -37 -39 -40 -25 -62 9 -13 28 -23 45 -25 39 -4 86 41 104 100 l14 42 206
51 c233 58 258 71 329 175 46 67 89 106 147 132 46 20 163 36 163 22 0 -15
-50 -84 -60 -84 -5 0 -14 9 -20 20 -17 32 -58 26 -88 -12 -31 -39 36 -76 88
-48 16 9 23 2 51 -48 44 -76 119 -149 223 -217 85 -56 210 -115 242 -115 32 0
1 -17 -51 -29 -27 -6 -72 -18 -100 -25 -27 -8 -77 -13 -110 -12 -49 2 -69 9
-106 34 -74 51 -98 42 -145 -49 -30 -60 -55 -73 -178 -93 -62 -10 -95 -21
-109 -35 l-20 -20 32 -30 c21 -20 48 -33 79 -38 75 -13 209 -6 317 16 156 32
239 39 550 44 381 7 536 27 648 84 55 27 77 66 77 132 0 76 -70 129 -225 172
-135 37 -422 93 -597 116 -43 6 -45 9 -20 37 34 39 88 141 116 218 72 205 75
480 7 646 -37 90 -69 138 -125 190 -48 45 -173 132 -191 132 -5 1 -28 9 -49
19 -32 15 -51 39 -109 132 -38 63 -110 195 -159 294 -49 99 -99 196 -110 215
-27 44 -88 110 -104 110 -6 0 -17 7 -24 15 -16 19 -19 19 -51 -3z m67 -46 c8
-32 -2 -46 -31 -46 -31 0 -39 26 -15 50 26 26 38 25 46 -4z m-38 -223 c-4 -39
-29 -43 -26 -4 1 18 8 31 16 31 9 0 12 -9 10 -27z m0 -113 c19 -37 20 -41 4
-49 -9 -5 -32 -6 -49 -4 -24 4 -34 1 -39 -11 -3 -9 -13 -16 -20 -16 -8 0 -17
-7 -20 -15 -5 -12 -15 -14 -39 -9 -32 6 -35 4 -59 -43 -23 -47 -102 -130 -113
-119 -3 2 8 28 23 56 35 64 120 144 208 195 36 22 66 43 66 47 0 20 18 4 38
-32z m100 -97 c27 -59 38 -172 17 -173 -5 -1 -15 25 -21 57 -7 32 -20 78 -28
102 -32 89 -8 100 32 14z m18 -310 c7 -46 7 -69 0 -72 -11 -5 -42 -35 -71 -72
-50 -63 -109 -75 -198 -37 -66 27 -63 24 -46 55 8 14 14 54 14 88 l0 61 62 12
c73 14 123 15 123 4 0 -5 -13 -18 -30 -30 -36 -27 -41 -67 -9 -77 29 -9 81 40
77 73 -3 22 33 61 57 62 6 0 16 -30 21 -67z m-96 4 c0 -8 -11 -24 -24 -36 -32
-30 -46 -8 -15 25 25 27 39 31 39 11z m-280 -177 c0 -5 -4 -10 -10 -10 -5 0
-10 5 -10 10 0 6 5 10 10 10 6 0 10 -4 10 -10z m868 -277 c25 -63 32 -114 32
-218 0 -229 -68 -450 -145 -469 -39 -10 -63 10 -96 78 -17 36 -41 69 -55 76
-27 15 -29 22 -13 52 6 11 19 55 30 97 25 106 21 240 -9 300 -12 25 -22 46
-22 48 0 2 22 1 49 -3 56 -7 145 15 182 46 31 25 35 25 47 -7z m-403 -609 c17
-13 18 -16 5 -24 -19 -12 -57 -13 -64 -1 -10 15 5 41 23 41 9 0 25 -7 36 -16z
m465 -194 c-30 -24 -64 -34 -85 -26 -41 16 3 44 70 45 l40 1 -25 -20z m-1273
-173 c-27 -45 -69 -69 -88 -50 -7 7 -9 19 -6 27 8 20 97 77 109 70 5 -3 -2
-25 -15 -47z m1807 -47 c16 -16 -58 -40 -131 -41 -84 -2 -222 11 -228 21 -3 4
41 13 98 19 56 7 111 13 122 15 37 5 130 -5 139 -14z m360 -36 c22 -21 20 -46
-5 -78 -25 -31 -38 -32 -73 -5 -31 25 -32 38 -5 73 23 29 60 34 83 10z m-2405
-50 c37 -31 38 -39 10 -55 -27 -14 -61 0 -84 35 -33 50 22 64 74 20z m1455
-50 c9 -23 7 -74 -2 -74 -11 0 -32 46 -32 70 0 24 25 27 34 4z m-730 -20 c33
-13 14 -31 -51 -47 -102 -25 -210 -44 -288 -51 -62 -6 -68 -5 -52 8 17 13 187
79 232 89 31 7 141 8 159 1z"/>
<path d="M3480 3080 c-95 -32 -158 -65 -146 -77 5 -4 11 -2 13 5 3 6 10 12 16
12 7 0 35 12 62 25 28 14 58 25 67 25 9 0 20 5 23 10 7 12 0 12 -35 0z"/>
<path d="M2628 4539 c-8 -6 2 -9 29 -9 23 0 44 3 46 8 7 10 -58 11 -75 1z"/>
<path d="M2723 4536 c3 -7 -1 -23 -9 -35 -22 -31 -1 -25 29 8 21 24 23 30 11
35 -25 10 -36 7 -31 -8z"/>
<path d="M5350 4510 c0 -13 5 -18 15 -14 8 4 15 10 15 14 0 4 -7 10 -15 14
-10 4 -15 -1 -15 -14z"/>
<path d="M2364 4509 c-7 -12 -9 -11 66 -15 52 -2 61 0 45 8 -24 14 -104 18
-111 7z"/>
<path d="M2322 4494 c-8 -8 -11 -23 -7 -32 6 -16 8 -15 21 2 26 36 14 62 -14
30z"/>
<path d="M2350 4455 c-16 -19 -14 -20 28 -28 38 -8 42 0 6 13 -14 6 -22 14
-19 20 10 15 -1 12 -15 -5z"/>
<path d="M5285 4409 c-10 -15 1 -23 20 -15 9 3 13 10 10 16 -8 13 -22 13 -30
-1z"/>
<path d="M2300 4387 c34 -19 83 -28 99 -17 17 10 -2 16 -74 25 -47 5 -48 5
-25 -8z"/>
<path d="M2412 4334 c-84 -102 -152 -320 -132 -425 13 -70 48 -144 93 -197 44
-52 37 -35 44 -109 8 -99 -32 -240 -128 -451 -39 -85 -38 -117 4 -142 42 -26
110 -27 136 -1 11 11 23 37 27 58 10 59 19 68 83 92 108 39 114 74 40 246 -33
78 -53 140 -56 178 -6 57 -6 57 21 57 27 0 76 39 76 60 0 28 -22 50 -50 50
-32 0 -60 -31 -60 -67 0 -30 -11 -35 -48 -21 -20 8 -35 23 -41 40 -15 43 -6
169 16 219 27 60 101 175 190 292 76 101 92 127 77 127 -21 -1 -225 -284 -277
-385 -28 -54 -32 -69 -32 -147 0 -49 -3 -88 -6 -88 -4 0 -24 33 -45 73 -33 63
-38 83 -42 155 -3 52 0 100 8 125 16 52 121 270 134 279 6 4 8 10 4 13 -3 3
-19 -11 -36 -31z m182 -620 c8 -21 1 -31 -36 -50 -39 -20 -45 -12 -25 31 18
37 50 47 61 19z m-106 -74 c8 0 12 -16 12 -45 0 -48 30 -143 73 -236 57 -118
46 -154 -53 -184 -66 -20 -74 -28 -85 -93 -10 -60 -28 -76 -83 -68 -85 11 -88
33 -27 163 19 41 35 77 35 80 0 3 6 19 14 36 42 93 60 174 61 265 0 88 1 93
20 88 11 -3 26 -6 33 -6z"/>
<path d="M2640 4346 c0 -9 5 -16 10 -16 6 0 10 4 10 9 0 6 -4 13 -10 16 -5 3
-10 -1 -10 -9z"/>
<path d="M5426 4351 c-4 -5 -2 -12 3 -15 5 -4 12 -2 15 3 4 5 2 12 -3 15 -5 4
-12 2 -15 -3z"/>
<path d="M2540 4297 c-33 -56 -33 -57 -21 -57 7 0 15 8 18 18 4 9 11 20 15 23
5 3 10 12 11 20 2 8 6 20 10 27 5 6 5 12 0 12 -4 0 -19 -19 -33 -43z"/>
<path d="M2471 4234 c0 -11 3 -14 6 -6 3 7 2 16 -1 19 -3 4 -6 -2 -5 -13z"/>
<path d="M2406 4224 c-9 -24 -7 -27 9 -10 17 17 19 26 6 26 -5 0 -12 -7 -15
-16z"/>
<path d="M2440 4199 c0 -11 5 -17 10 -14 6 3 10 13 10 21 0 8 -4 14 -10 14 -5
0 -10 -9 -10 -21z"/>
<path d="M4477 3993 c-4 -3 -7 -12 -7 -20 0 -15 26 -18 34 -4 7 11 -18 33 -27
24z"/>
<path d="M4567 3906 c-6 -16 11 -26 31 -19 6 3 12 11 12 19 0 18 -36 18 -43 0z"/>
<path d="M4405 3850 c-7 -12 2 -30 16 -30 5 0 9 9 9 20 0 21 -15 27 -25 10z"/>
<path d="M4098 3467 c-17 -36 -16 -123 2 -141 7 -7 8 -1 4 20 -7 37 13 117 27
108 6 -3 9 -19 7 -35 -3 -16 -1 -29 3 -29 4 0 9 21 11 46 2 35 -1 48 -14 55
-23 12 -22 13 -40 -24z"/>
<path d="M4190 3478 c0 -9 -3 -23 -6 -32 -3 -9 -1 -16 4 -16 16 0 26 40 13 53
-8 8 -11 7 -11 -5z"/>
<path d="M877 3453 c-16 -15 -6 -33 18 -33 18 0 25 5 25 20 0 20 -28 28 -43
13z"/>
<path d="M4224 3405 c-18 -14 -17 -15 11 -9 37 8 57 24 29 24 -11 0 -29 -7
-40 -15z"/>
<path d="M4165 3370 c3 -5 8 -10 11 -10 2 0 4 5 4 10 0 6 -5 10 -11 10 -5 0
-7 -4 -4 -10z"/>
<path d="M4220 3359 c-12 -9 -10 -10 8 -6 13 3 30 3 38 0 12 -4 11 -9 -6 -25
-16 -15 -30 -19 -51 -14 -22 4 -29 2 -29 -9 0 -22 53 -19 95 6 23 14 34 27 31
36 -3 8 -6 17 -6 19 0 9 -66 3 -80 -7z"/>
<path d="M4020 3309 c0 -7 -11 -21 -24 -33 -25 -22 -44 -66 -28 -66 5 0 23 5
41 11 34 12 44 35 11 26 -28 -7 -25 4 10 35 29 25 30 38 3 38 -7 0 -13 -5 -13
-11z"/>
<path d="M4126 3255 c7 -18 -6 -42 -15 -27 -4 7 -12 8 -21 2 -13 -8 -13 -10 1
-10 9 0 19 -9 22 -20 3 -11 1 -20 -4 -20 -5 0 -9 6 -9 13 0 8 -4 7 -10 -3 -6
-10 -10 -11 -10 -2 0 6 -6 12 -14 12 -8 0 -13 -10 -13 -25 0 -31 19 -32 58 -4
24 17 29 28 29 60 0 21 -4 39 -10 39 -5 0 -7 -7 -4 -15z"/>
<path d="M3618 3112 c-9 -4 27 -7 82 -8 54 0 97 3 94 8 -6 10 -152 10 -176 0z"/>
<path d="M3890 3065 c0 -8 2 -15 4 -15 2 0 6 7 10 15 3 8 1 15 -4 15 -6 0 -10
-7 -10 -15z"/>
<path d="M3950 3065 c0 -5 38 -45 43 -44 1 0 10 -3 19 -6 10 -4 23 -5 30 -2 7
3 3 6 -8 6 -12 1 -24 8 -28 16 -3 8 -12 15 -21 15 -8 0 -15 5 -15 10 0 6 -4
10 -10 10 -5 0 -10 -2 -10 -5z"/>
<path d="M4030 2996 c0 -2 7 -7 16 -10 8 -3 12 -2 9 4 -6 10 -25 14 -25 6z"/>
<path d="M4080 2972 c0 -5 7 -13 16 -16 10 -4 14 -1 12 6 -5 15 -28 23 -28 10z"/>
<path d="M3206 2942 c-3 -5 1 -9 9 -9 8 0 12 4 9 9 -3 4 -7 8 -9 8 -2 0 -6 -4
-9 -8z"/>
<path d="M4125 2930 c3 -5 8 -10 11 -10 2 0 4 5 4 10 0 6 -5 10 -11 10 -5 0
-7 -4 -4 -10z"/>
<path d="M4935 2911 c-15 -17 -15 -20 1 -35 15 -16 18 -16 35 -1 19 18 16 40
-6 49 -7 2 -21 -4 -30 -13z"/>
<path d="M3145 2890 c-3 -6 1 -7 9 -4 18 7 21 14 7 14 -6 0 -13 -4 -16 -10z"/>
<path d="M3090 2860 c-37 -31 -36 -37 4 -19 13 6 27 20 29 30 3 11 4 19 4 19
-1 0 -18 -14 -37 -30z"/>
<path d="M4211 2849 c-1 -9 6 -19 14 -23 9 -3 15 0 15 10 0 8 -4 13 -9 10 -5
-4 -12 0 -14 6 -4 8 -6 7 -6 -3z"/>
<path d="M4266 2772 c6 -4 14 -14 17 -22 4 -10 6 -8 6 8 1 15 -5 22 -16 22
-11 0 -14 -3 -7 -8z"/>
<path d="M4310 2728 c0 -9 5 -20 10 -23 6 -4 8 -10 6 -14 -3 -4 4 -22 15 -39
10 -18 19 -39 19 -47 0 -7 4 -16 9 -20 14 -8 -3 45 -33 108 -14 29 -25 44 -26
35z"/>
<path d="M4390 2480 c0 -22 3 -40 8 -40 4 0 6 18 4 40 -2 22 -6 40 -8 40 -2 0
-4 -18 -4 -40z"/>
<path d="M2722 2460 c-23 -22 -29 -40 -13 -40 5 0 13 9 16 21 4 11 16 24 28
29 14 6 17 9 6 9 -8 1 -25 -8 -37 -19z"/>
<path d="M2676 2383 c-6 -14 -5 -15 5 -6 7 7 10 15 7 18 -3 3 -9 -2 -12 -12z"/>
<path d="M2667 2353 c-4 -3 -7 -11 -7 -17 0 -6 5 -5 12 2 6 6 9 14 7 17 -3 3
-9 2 -12 -2z"/>
<path d="M2662 2300 c0 -14 2 -19 5 -12 2 6 2 18 0 25 -3 6 -5 1 -5 -13z"/>
<path d="M2638 2253 c0 -16 -1 -34 -1 -40 1 -7 -3 -13 -9 -13 -5 0 -6 -5 -3
-11 4 -6 9 -8 12 -5 8 8 16 96 9 96 -3 0 -7 -12 -8 -27z"/>
<path d="M2660 1996 c0 -8 5 -18 10 -21 6 -3 10 1 10 9 0 8 -4 18 -10 21 -5 3
-10 -1 -10 -9z"/>
<path d="M4236 1994 c-5 -14 -4 -15 9 -4 17 14 19 20 6 20 -5 0 -12 -7 -15
-16z"/>
<path d="M4220 1964 c-9 -3 -21 -18 -29 -34 -7 -17 -19 -30 -27 -30 -8 0 -14
-7 -14 -15 0 -13 3 -13 18 2 33 35 76 83 71 82 -2 -1 -11 -3 -19 -5z"/>
<path d="M2685 1949 c-5 -7 -1 -17 8 -24 10 -7 17 -18 17 -24 0 -12 31 -60 63
-95 9 -11 17 -14 17 -8 0 7 -9 22 -20 35 -12 12 -27 29 -35 38 -8 9 -15 20
-15 26 0 6 -6 23 -14 38 -10 18 -16 23 -21 14z"/>
<path d="M4125 1860 c-3 -5 -1 -10 4 -10 6 0 11 5 11 10 0 6 -2 10 -4 10 -3 0
-8 -4 -11 -10z"/>
<path d="M4083 1823 c-7 -2 -13 -11 -13 -19 0 -17 26 -8 34 12 6 14 0 16 -21
7z"/>
<path d="M4026 1779 c-15 -15 -16 -19 -5 -19 16 0 39 19 39 32 0 13 -14 8 -34
-13z"/>
<path d="M2820 1770 c0 -5 5 -10 10 -10 6 0 10 5 10 10 0 6 -4 10 -10 10 -5 0
-10 -4 -10 -10z"/>
<path d="M2844 1735 c8 -8 19 -15 25 -15 6 0 11 -4 11 -8 0 -5 11 -14 25 -20
16 -7 25 -8 25 -1 0 5 -8 12 -17 16 -10 3 -26 14 -36 25 -10 10 -25 18 -33 18
-14 0 -14 -2 0 -15z"/>
<path d="M3953 1727 c-49 -34 -50 -53 -1 -24 23 13 44 30 46 36 5 16 -8 12
-45 -12z"/>
<path d="M3861 1670 c-12 -11 -27 -18 -31 -15 -5 3 -11 1 -15 -5 -4 -6 -11 -8
-16 -5 -5 4 -9 -1 -9 -10 0 -13 4 -14 20 -5 11 6 20 7 20 3 0 -4 4 -3 8 2 4 6
19 16 35 22 15 7 27 17 27 23 0 15 -12 12 -39 -10z"/>
<path d="M2945 1660 c11 -5 27 -9 35 -9 13 -1 13 0 0 9 -8 5 -24 9 -35 9 l-20
0 20 -9z"/>
<path d="M3010 1640 c0 -12 35 -31 43 -24 3 3 17 -2 31 -11 14 -10 26 -13 26
-9 0 5 4 4 8 -3 4 -6 30 -14 57 -16 28 -3 64 -9 80 -12 l30 -6 -30 14 c-16 8
-48 14 -69 15 -22 1 -54 8 -70 16 -69 32 -106 44 -106 36z"/>
<path d="M3750 1620 c0 -5 7 -7 15 -4 8 4 15 8 15 10 0 2 -7 4 -15 4 -8 0 -15
-4 -15 -10z"/>
<path d="M3695 1601 c-6 -6 -32 -12 -60 -14 l-50 -3 58 -2 c31 -1 57 2 57 7 0
5 10 12 23 14 20 4 20 4 2 6 -12 0 -25 -3 -30 -8z"/>
<path d="M3536 1568 c3 -4 12 -8 20 -8 8 0 14 4 14 8 0 4 -9 8 -19 8 -11 0
-17 -4 -15 -8z"/>
<path d="M3305 1559 c8 -11 55 -12 55 -1 0 5 -14 9 -30 10 -17 0 -28 -4 -25
-9z"/>
<path d="M3455 1560 c-4 -6 8 -10 29 -10 20 0 36 5 36 10 0 6 -13 10 -29 10
-17 0 -33 -4 -36 -10z"/>
<path d="M3398 1553 c7 -3 16 -2 19 1 4 3 -2 6 -13 5 -11 0 -14 -3 -6 -6z"/>
<path d="M2624 916 c-4 -11 0 -22 12 -31 11 -7 30 -23 44 -35 34 -30 216 -149
254 -167 17 -7 50 -24 73 -37 22 -13 76 -38 120 -55 43 -18 87 -36 98 -41 25
-12 168 -56 215 -66 19 -4 40 -9 45 -11 19 -6 180 -34 275 -48 92 -13 462 -14
535 -1 17 2 50 7 75 10 133 15 331 59 515 115 33 10 87 26 120 34 33 9 112 30
175 46 190 50 468 103 638 122 113 13 155 22 160 37 6 20 -44 16 -263 -19 -33
-5 -73 -12 -90 -14 -65 -10 -252 -46 -290 -57 -22 -6 -47 -13 -55 -14 -83 -17
-116 -25 -185 -44 -108 -30 -210 -59 -270 -77 -27 -8 -86 -23 -130 -35 -44
-11 -84 -21 -90 -22 -19 -5 -80 -16 -205 -36 -100 -16 -174 -20 -375 -21 -137
0 -257 2 -265 5 -8 3 -62 13 -120 21 -58 8 -130 22 -160 31 -30 8 -73 20 -95
26 -74 20 -210 70 -282 104 -40 19 -75 34 -79 34 -3 0 -53 27 -112 61 -110 64
-194 122 -249 173 -28 26 -33 27 -39 12z"/>
</g>
</svg>
