<svg id="SvgjsSvg1001" width="288" height="288" xmlns="http://www.w3.org/2000/svg" version="1.1" xmlns:xlink="http://www.w3.org/1999/xlink" xmlns:svgjs="http://svgjs.com/svgjs"><defs id="SvgjsDefs1002"></defs><g id="SvgjsG1008"><svg xmlns="http://www.w3.org/2000/svg" display="block" preserveAspectRatio="none" viewBox="0 0 1697 2048" width="288" height="288"><defs><linearGradient id="c" x1="999.014" x2="1010.15" y1="1133.27" y2="1135.02" gradientUnits="userSpaceOnUse"><stop offset="0" stop-color="#213034" class="svgShape stopColor213034-2"></stop><stop offset="1" stop-color="#606D6E" class="svgShape stopColor606d6e-3"></stop></linearGradient><linearGradient id="b" x1="1199.64" x2="1210.18" y1="1799.81" y2="1808.25" gradientUnits="userSpaceOnUse"><stop offset="0" stop-color="#16150F" class="svgShape stopColor16150f-5"></stop><stop offset="1" stop-color="#866845" class="svgShape stopColor866845-6"></stop></linearGradient><linearGradient id="a" x1="823.853" x2="805.484" y1="9.814" y2="-3.287" gradientUnits="userSpaceOnUse"><stop offset="0" stop-color="#ffffff" class="svgShape stopColor343134-8"></stop><stop offset="1" stop-color="#505858" class="svgShape stopColor505858-9"></stop></linearGradient></defs><path fill="#EEEEED" d="M 0 2014.94 L 9.77117 2023.65 C 17.4144 2030.35 25.1709 2036.41 35.7263 2036.57 C 66.1395 2037.01 96.9936 2036.83 127.413 2036.82 L 306.66 2036.73 L 879 2036.78 L 1406.97 2036.86 L 1574.85 2036.81 C 1602.39 2036.78 1630.42 2037.11 1657.96 2036.39 C 1677.32 2035.89 1685.02 2024.83 1697 2010.89 L 1697 2048 L 0 2048 L 0 2014.94 z" class="svgShape coloreeeeed-11 selectable"></path><path fill="#F4CD96" d="M 1117.85 1667.21 C 1086.23 1702.63 1050.28 1724.43 1005 1740.02 C 922.034 1768.58 811.247 1772.69 730.419 1734.65 C 705.55 1722.95 684.034 1701.78 676.082 1675.05 C 659.023 1617.72 675.452 1550.64 683.86 1493.08 C 690.97 1444.41 697.318 1402.44 693.44 1353.24 C 688.38 1289.04 670.897 1239.8 653.067 1179.34 C 640.764 1138.69 630.003 1097.58 620.809 1056.12 C 616.486 1036.84 613.147 1017.93 610.258 998.418 C 600.583 933.075 591.125 865.406 591.08 799.387 C 591.133 756.953 622.152 728.994 651.961 703.329 C 694.982 666.287 733.346 631.557 763.089 582.113 C 791.146 535.473 813.284 486.244 829.266 434.028 C 836.912 409.044 844.103 383.126 853.825 358.894 C 855.77 353.886 862.593 347.077 868.228 351.373 C 877.04 358.091 880.704 376.35 883.347 386.691 C 880.435 387.674 879.788 387.69 877.686 390.01 L 877.645 388.629 C 877.342 379.998 873.591 356.348 863.999 353.838 C 854.992 357.163 848.012 385.751 845.035 395.341 L 828.546 448.392 C 811.455 501.533 787.306 552.139 756.747 598.853 C 715.907 661.154 659.408 694.534 611.525 749.012 C 585.466 778.66 596.557 838.865 598.736 874.834 C 604.838 949.287 616.88 1023.91 634.14 1096.57 C 656.082 1187.51 693.466 1270.83 698.339 1365.61 C 699.435 1387.27 698.757 1408.99 696.311 1430.54 C 688.798 1497.19 658.555 1617.74 681.062 1677.48 C 691.752 1705.86 712.271 1722.83 739.483 1734.81 C 820.945 1770.66 937.519 1763.39 1019 1731.31 C 1047.8 1719.98 1076.05 1703.59 1098.56 1682.2 C 1112.83 1668.63 1125.98 1653.55 1138.15 1638.09 C 1171.79 1595.37 1206.94 1538.05 1261.75 1520.56 C 1275.23 1516.26 1290.77 1515.34 1304.03 1520.94 C 1315.45 1525.75 1323.92 1534.94 1328.37 1546.43 C 1337.47 1569.93 1330.44 1596.91 1324.3 1620.24 C 1324.5 1620.46 1324.71 1620.69 1324.91 1620.91 C 1355.26 1634.7 1374.88 1648.51 1386.84 1681.58 C 1418.59 1769.45 1347.68 1876.38 1256.62 1887.48 C 1232.67 1890.4 1189.07 1888.6 1170.24 1872.9 C 1161.77 1872.34 1151.87 1872.35 1143.26 1872.1 L 1153.56 1864.3 C 1150.94 1863.28 1150.52 1863.86 1147.29 1864.28 L 1150.59 1860.94 C 1149.59 1859.43 1139.38 1849.96 1137.17 1847.42 C 1128.36 1837.26 1121.14 1826.91 1114.87 1815.06 C 1097.24 1781.74 1100.91 1741.13 1112.52 1706.43 C 1116.16 1695.61 1121.34 1685.25 1124.95 1674.44 C 1126.12 1670.92 1120.77 1667.92 1117.85 1667.21 z" class="svgShape colorf4cd96-18 selectable"></path><path fill="#F4CD96" d="M 1324.3 1620.24 C 1324.5 1620.46 1324.71 1620.69 1324.91 1620.91 C 1355.26 1634.7 1374.88 1648.51 1386.84 1681.58 C 1418.59 1769.45 1347.68 1876.38 1256.62 1887.48 C 1232.67 1890.4 1189.07 1888.6 1170.24 1872.9 C 1161.77 1872.34 1151.87 1872.35 1143.26 1872.1 L 1153.56 1864.3 C 1150.94 1863.28 1150.52 1863.86 1147.29 1864.28 L 1150.59 1860.94 C 1154.29 1860.06 1164.38 1850.42 1167.66 1847.46 C 1202.44 1816.08 1228.82 1779.16 1256.41 1741.58 L 1260.42 1743.36 C 1286.55 1705.01 1307.99 1663.68 1324.3 1620.24 z" class="svgShape colorf4cd96-19 selectable"></path><path fill="url(#b)" d="M 1256.41 1741.58 L 1260.42 1743.36 C 1235.93 1781.5 1215.24 1808.8 1182 1840.81 C 1174.2 1848.32 1161.1 1857.47 1155.27 1863.57 L 1153.56 1864.3 C 1150.94 1863.28 1150.52 1863.86 1147.29 1864.28 L 1150.59 1860.94 C 1154.29 1860.06 1164.38 1850.42 1167.66 1847.46 C 1202.44 1816.08 1228.82 1779.16 1256.41 1741.58 z" class="svgShape colorgradient-20 selectable"></path><path fill="#EEEEED" d="M 1155.27 1863.57 C 1160.01 1866.84 1166.47 1870.18 1170.24 1872.9 C 1161.77 1872.34 1151.87 1872.35 1143.26 1872.1 L 1153.56 1864.3 L 1155.27 1863.57 z" class="svgShape coloreeeeed-21 selectable"></path><path fill="#FDFFFF" d="M 1117.85 1667.21 C 1086.23 1702.63 1050.28 1724.43 1005 1740.02 C 922.034 1768.58 811.247 1772.69 730.419 1734.65 C 705.55 1722.95 684.034 1701.78 676.082 1675.05 C 659.023 1617.72 675.452 1550.64 683.86 1493.08 C 690.97 1444.41 697.318 1402.44 693.44 1353.24 C 688.38 1289.04 670.897 1239.8 653.067 1179.34 C 640.764 1138.69 630.003 1097.58 620.809 1056.12 C 616.486 1036.84 613.147 1017.93 610.258 998.418 C 600.583 933.075 591.125 865.406 591.08 799.387 C 591.133 756.953 622.152 728.994 651.961 703.329 C 694.982 666.287 733.346 631.557 763.089 582.113 C 791.146 535.473 813.284 486.244 829.266 434.028 C 836.912 409.044 844.103 383.126 853.825 358.894 C 855.77 353.886 862.593 347.077 868.228 351.373 C 877.04 358.091 880.704 376.35 883.347 386.691 C 880.435 387.674 879.788 387.69 877.686 390.01 L 877.645 388.629 C 877.342 379.998 873.591 356.348 863.999 353.838 C 854.992 357.163 848.012 385.751 845.035 395.341 L 828.546 448.392 C 811.455 501.533 787.306 552.139 756.747 598.853 C 715.907 661.154 659.408 694.534 611.525 749.012 C 585.466 778.66 596.557 838.865 598.736 874.834 C 604.838 949.287 616.88 1023.91 634.14 1096.57 C 656.082 1187.51 693.466 1270.83 698.339 1365.61 C 699.435 1387.27 698.757 1408.99 696.311 1430.54 C 688.798 1497.19 658.555 1617.74 681.062 1677.48 C 691.752 1705.86 712.271 1722.83 739.483 1734.81 C 820.945 1770.66 937.519 1763.39 1019 1731.31 C 1047.8 1719.98 1076.05 1703.59 1098.56 1682.2 C 1112.83 1668.63 1125.98 1653.55 1138.15 1638.09 C 1171.79 1595.37 1206.94 1538.05 1261.75 1520.56 C 1275.23 1516.26 1290.77 1515.34 1304.03 1520.94 C 1315.45 1525.75 1323.92 1534.94 1328.37 1546.43 C 1337.47 1569.93 1330.44 1596.91 1324.3 1620.24 C 1307.99 1663.68 1286.55 1705.01 1260.42 1743.36 L 1256.41 1741.58 C 1282.71 1703.52 1304.18 1662.34 1320.34 1618.98 C 1285.96 1606.1 1233.67 1599.85 1197.59 1607.81 C 1187.84 1609.96 1176.52 1616.86 1167.69 1621.77 C 1164.07 1619.56 1162.28 1618.43 1159.04 1615.73 C 1145.74 1631.32 1131.41 1650.65 1117.85 1667.21 z" class="svgShape colorfdffff-22 selectable"></path><path fill="#070708" d="M 1117.85 1667.21 C 1086.23 1702.63 1050.28 1724.43 1005 1740.02 C 922.034 1768.58 811.247 1772.69 730.419 1734.65 C 705.55 1722.95 684.034 1701.78 676.082 1675.05 C 659.023 1617.72 675.452 1550.64 683.86 1493.08 C 690.97 1444.41 697.318 1402.44 693.44 1353.24 C 688.38 1289.04 670.897 1239.8 653.067 1179.34 C 640.764 1138.69 630.003 1097.58 620.809 1056.12 C 616.486 1036.84 613.147 1017.93 610.258 998.418 C 600.583 933.075 591.125 865.406 591.08 799.387 C 591.133 756.953 622.152 728.994 651.961 703.329 C 694.982 666.287 733.346 631.557 763.089 582.113 C 791.146 535.473 813.284 486.244 829.266 434.028 C 836.912 409.044 844.103 383.126 853.825 358.894 C 855.77 353.886 862.593 347.077 868.228 351.373 C 877.04 358.091 880.704 376.35 883.347 386.691 C 880.435 387.674 879.788 387.69 877.686 390.01 L 877.645 388.629 C 877.342 379.998 873.591 356.348 863.999 353.838 C 854.992 357.163 848.012 385.751 845.035 395.341 L 828.546 448.392 C 811.455 501.533 787.306 552.139 756.747 598.853 C 715.907 661.154 659.408 694.534 611.525 749.012 C 585.466 778.66 596.557 838.865 598.736 874.834 C 604.838 949.287 616.88 1023.91 634.14 1096.57 C 656.082 1187.51 693.466 1270.83 698.339 1365.61 C 699.435 1387.27 698.757 1408.99 696.311 1430.54 C 688.798 1497.19 658.555 1617.74 681.062 1677.48 C 691.752 1705.86 712.271 1722.83 739.483 1734.81 C 820.945 1770.66 937.519 1763.39 1019 1731.31 C 1047.8 1719.98 1076.05 1703.59 1098.56 1682.2 C 1112.83 1668.63 1125.98 1653.55 1138.15 1638.09 C 1171.79 1595.37 1206.94 1538.05 1261.75 1520.56 C 1275.23 1516.26 1290.77 1515.34 1304.03 1520.94 C 1315.45 1525.75 1323.92 1534.94 1328.37 1546.43 C 1337.47 1569.93 1330.44 1596.91 1324.3 1620.24 C 1307.99 1663.68 1286.55 1705.01 1260.42 1743.36 L 1256.41 1741.58 C 1282.71 1703.52 1304.18 1662.34 1320.34 1618.98 C 1334.1 1573.5 1337.75 1515.3 1272.9 1521.62 C 1230.33 1525.76 1183.34 1583.35 1159.04 1615.73 C 1145.74 1631.32 1131.41 1650.65 1117.85 1667.21 z" class="svgShape color070708-23 selectable"></path><path fill="#070708" d="M 924.636 584.753 L 926.051 583.636 C 927.646 586.534 927.968 587.462 929.041 590.62 C 932.574 615.942 938.51 649.06 951.12 671.362 C 965.769 697.27 980.052 719.224 993.481 746.23 C 1027.43 814.5 1026.45 886.986 1026.28 961.631 C 1026.18 1007.68 1032.87 1037.14 1005.56 1075.69 L 1008.75 1087.77 L 1004.43 1089.07 C 1004.03 1085.61 1004.13 1083.4 1002.42 1080.49 C 994.543 1083.99 974.276 1126.43 968.484 1136.46 C 953.246 1163.69 929.987 1181.1 899.283 1188.53 C 866.855 1196.39 820.716 1188.39 807.849 1152.69 C 798.287 1126.16 804.98 1091.86 796.587 1066 C 782.501 1022.6 757.051 982.651 747.938 937.216 C 741.14 904.165 741.505 859.743 760.626 830.764 C 792.193 782.922 870.706 756.077 921.126 789.606 C 983.203 830.538 970.397 916.918 982.059 980.57 C 987.628 1010.96 997.692 1039.78 1004.01 1069.78 C 1029.38 1037.95 1022.25 1003.52 1022.67 966.308 C 1023.73 871.422 1021.34 781.899 964.403 701.625 C 938.346 664.887 929.505 629.368 924.636 584.753 z" class="svgShape color070708-24 selectable"></path><path fill="#FDFFFF" d="M 863.767 778.387 C 880.361 776.308 902.005 782.796 916.251 791.273 C 975.741 826.672 966.259 908.923 976.022 967.617 C 982.016 1003.66 991.25 1039.14 1000.87 1073.84 C 964.188 1122.02 958.606 1178.36 886.913 1187.18 C 865.35 1189.2 843.586 1186.29 825.877 1172.38 C 801.499 1153.24 806.981 1111.25 803.521 1082.76 C 801.264 1062.15 792.569 1041.59 783.801 1022.54 C 756.027 962.185 724.529 882.134 771.638 822.655 C 792.463 796.362 830.575 781.395 863.767 778.387 z" class="svgShape colorfdffff-25 selectable"></path><path fill="#070708" d="M 920.249 551.031 C 917.393 530.897 916.471 510.418 915.106 490.142 C 912.822 456.223 905.37 392.125 921.024 362.048 C 923.358 357.565 927.426 352.256 932.565 350.907 C 934.946 350.281 936.89 350.804 938.908 352.153 C 959.861 366.163 959.767 457.657 962.096 483.215 C 963.526 498.908 965.493 514.48 970.363 529.536 C 982.688 567.645 1005.29 601.931 1026.84 635.313 C 1066.28 696.43 1105.95 757.448 1122.74 829.192 C 1150.28 946.845 1102.92 1088.12 1065.14 1199.84 C 1049.41 1246.35 1030.95 1295.26 1026.49 1344.44 C 1020.96 1405.4 1032.25 1468.42 1044.66 1527.94 C 1048.3 1545.38 1053.47 1562.95 1056.18 1580.52 C 1056.66 1583.6 1057.52 1586.06 1055.63 1588.64 L 1054.13 1588.57 C 1051.88 1583.8 1051.56 1579.38 1050.54 1574.28 C 1035.89 1500.69 1016.61 1423.91 1022.51 1348.41 C 1027.2 1294.08 1047.37 1242.71 1064.22 1191.44 C 1095.13 1097.32 1126.17 1003.33 1127.27 903.221 C 1128.39 801.229 1076.91 718.14 1022.58 636.006 C 1000.45 602.544 978.164 566.757 966.186 528.423 C 962.415 516.365 959.898 503.951 958.674 491.377 C 955.668 462.143 957.191 376.909 939.297 357.142 C 937.796 355.484 936.003 354.518 933.764 354.422 C 931.313 354.316 929.48 355.157 927.768 356.896 C 905.069 379.955 920.742 498.652 922.009 532.738 C 921.591 538.933 921.544 544.396 921.529 550.613 L 920.801 551.223 L 920.249 551.031 z" class="svgShape color070708-26 selectable"></path><path fill="#F38040" d="M 378.99 241.212 C 433.595 237.688 444.93 296.217 394.132 309.881 C 373.587 312.023 350.532 304.105 346.401 281.361 C 344.789 272.691 346.8 263.739 351.965 256.592 C 358.564 247.637 368.305 243.065 378.99 241.212 z" class="svgShape colorf38040-27 selectable"></path><path fill="#070708" d="M882.982 500.307L884.505 500.954C885.633 504.397 885.297 505.574 885.053 509.298 876.57 554.671 831.361 587.461 801.239 619.612 781.172 641.029 760.988 661.9 745.518 687.123 676.84 801.985 687.815 960.543 753.131 1074.18 758.459 1083.5 765.283 1095.17 764.665 1106.42 762.493 1145.93 739.067 1185.1 764.481 1222.5 817.469 1300.49 952.822 1245.92 992.09 1178.48L995.775 1181.27C983.021 1198.44 967.684 1213.53 950.308 1225.99 914.783 1251.82 869.867 1270.85 825.352 1263.5 800.444 1259.39 776.855 1246.45 762.208 1225.58 727.977 1176.79 770.46 1128.18 758.944 1094.27 753.9 1079.42 742.916 1065.83 735.84 1051.72 722.093 1024.31 712.933 992.082 705.951 962.296 693.868 910.748 692.181 861.748 699.601 809.329 706.39 761.373 721.135 716.074 748.528 675.845 769.34 645.282 796.199 619.38 822.273 593.384 837.994 577.711 855.279 562.094 867.109 543.156 875.638 529.502 880.202 516.031 882.982 500.307zM1143.26 1872.1C1126.11 1884.99 1107.37 1895.59 1087.5 1903.65 1031.8 1926.32 972.054 1930.18 914.972 1910.69 882.903 1899.74 859.954 1890.62 825.542 1898.37 770.304 1910.69 715.74 1937.84 659.639 1911.6 601.33 1884.33 549.747 1821.86 512.901 1770.48 477.251 1720.76 357.366 1560.87 460.825 1522.17 484.458 1513.37 510.626 1514.37 533.521 1524.94 537.033 1526.58 549.08 1532.85 550.23 1536.08 544.095 1535.65 535.738 1529.91 529.645 1527.19 521.992 1523.72 513.847 1521.46 505.502 1520.5 484.508 1518.05 460.22 1522.28 443.353 1535.7 431.677 1544.98 424.968 1557.61 423.316 1572.38 416.247 1635.52 499.482 1748.36 538.362 1797.62 574.528 1843.44 630.147 1906.76 689.922 1917.48 713.163 1921.65 737.846 1917.82 760.466 1911.84 788.929 1904.32 820.785 1891.82 850.218 1891.71 875.64 1891.61 900.129 1902.74 924.134 1909.96 937.834 1913.97 951.841 1916.85 966.013 1918.57 1029.55 1925.99 1097.37 1903.75 1147.29 1864.28 1150.52 1863.86 1150.94 1863.28 1153.56 1864.3L1143.26 1872.1z" class="svgShape color070708-28 selectable"></path><path fill="#F38040" d="M1290.12 701.753C1297.06 703.952 1309.89 712.352 1315.17 717.747 1332.26 735.197 1333.85 752.401 1334 775.266 1371.15 774.212 1406.13 775.045 1429.86 808.379 1423.66 807.038 1409.27 799.285 1401.08 797.075 1373.51 789.638 1350.32 789.233 1322.52 788.954 1321.5 779.439 1321.71 770.857 1319.54 761.143 1316.66 748.227 1312.73 736.253 1305.55 725.006 1300.7 717.415 1293.48 709.921 1290.12 701.753zM249.311 357.996C266.249 356.952 276.371 368.363 273.345 385.475 271.582 395.443 265.517 399.942 257.504 404.976 234.325 408.173 220.97 375.289 249.311 357.996z" class="svgShape colorf38040-29 selectable"></path><path fill="#959594" d="M 883.347 386.691 C 889.49 403.417 891.806 478.17 887.097 496.417 C 886.555 501.121 886.212 504.652 885.053 509.298 C 885.297 505.574 885.633 504.397 884.505 500.954 L 882.982 500.307 L 882.956 487.184 C 880.718 454.75 880.263 422.735 877.686 390.01 C 879.788 387.69 880.435 387.674 883.347 386.691 z" class="svgShape color959594-30 selectable"></path><path fill="#4D4E50" d="M 882.956 487.184 L 885.169 485.089 L 886.561 485.902 C 887.172 490.1 887.113 492.247 887.097 496.417 C 886.555 501.121 886.212 504.652 885.053 509.298 C 885.297 505.574 885.633 504.397 884.505 500.954 L 882.982 500.307 L 882.956 487.184 z" class="svgShape color4d4e50-31 selectable"></path><path fill="url(#c)" d="M 1008.75 1087.77 C 1016.23 1120.29 1015.86 1153.4 995.775 1181.27 L 992.09 1178.48 C 1009.83 1144.73 1009.36 1126.16 1004.43 1089.07 L 1008.75 1087.77 z" class="svgShape colorgradient-32 selectable"></path><path fill="#4D4E50" d="M 922.009 532.738 C 924.932 546.347 927.393 575.542 929.041 590.62 C 927.968 587.462 927.646 586.534 926.051 583.636 L 924.636 584.753 C 923.335 582.052 920.375 555.354 920.249 551.031 L 920.801 551.223 L 921.529 550.613 C 921.544 544.396 921.591 538.933 922.009 532.738 z" class="svgShape color4d4e50-33 selectable"></path></svg></g></svg>